# xmcd
#
# Track frame offsets:
#	150
#	11712
#	26277
#	37875
#	52220
#	65380
#	76142
#	88762
#	100740
#	116782
#	129062
#	138657
#	151540
#	163582
#
# Disc length: 2364 seconds
#
# Revision: 1
# Processed by: cddbd v1.5.1PL2 Copyright (c) Steve Scherf et al.
# Submitted via: EasyCDDAExtractor 9.0.0.1
#
DISCID=a5093a0e
DTITLE=Various Artist - Country Ladies CD1
DYEAR=1900
DGENRE=Country
TTITLE0=Patsy Cline - Walkin' After Midnight
TTITLE1=Loretta Lynn - Coal Miner's Daughter
TTITLE2=Donna Fargo - The Happiest Girl In The Whole USA
TTITLE3=Kitty Wells - It Wasn't God Who Made Honky Tonk Angels
TTITLE4=Tammy Wynette (live) - My Mann (Understands)
TTITLE5=Billie Jo Spears - I'm So Lonesome I Could Cry
TTITLE6=Norma Jean - Let's Go All The Way
TTITLE7=Skeeter Davis - The End Of The World
TTITLE8=Melba Montgomery - I'm Still In Love With You
TTITLE9=Jeanne Pruett - Satin Sheets
TTITLE10=Anne Murray - It;s All Over
TTITLE11=Dolly Parton - Little Blosom
TTITLE12=Jeanne C. Riley - Reborn
TTITLE13=Lynn Anderson - Two Doors Down
EXTD=
EXTT0=
EXTT1=
EXTT2=
EXTT3=
EXTT4=
EXTT5=
EXTT6=
EXTT7=
EXTT8=
EXTT9=
EXTT10=
EXTT11=
EXTT12=
EXTT13=
PLAYORDER=
